<svg xmlns="http://www.w3.org/2000/svg" viewBox="0 0 3198 568"><defs><style>.cls-1{fill:#fff;}.cls-2{fill:#eaeaea;}.cls-3{fill:#dfdfdf;}.cls-4{opacity:0.25;}.cls-5{fill:#b6b6b6;}.cls-6{opacity:0.5;}.cls-7{fill:#959595;}.cls-8{opacity:0.3;}.cls-9{fill:#e6e6e6;}</style></defs><g id="Calque_2" data-name="Calque 2"><g id="Layer_2" data-name="Layer 2"><rect class="cls-1" x="1048" y="48" width="144" height="16"/><rect class="cls-1" x="840" y="32" width="32" height="160"/><rect class="cls-1" x="872" y="96" width="32" height="16"/><rect class="cls-1" x="872" y="16" width="32" height="16"/><rect class="cls-1" x="904" width="32" height="16"/><polygon class="cls-1" points="952 64 952 80 936 80 936 96 920 96 920 80 872 80 872 64 888 64 888 48 872 48 872 32 904 32 904 16 936 16 936 48 920 48 920 64 952 64"/><rect class="cls-1" x="936" y="16" width="64" height="16"/><polygon class="cls-1" points="1032 64 1032 80 968 80 968 64 952 64 952 32 1000 32 1000 64 1032 64"/><rect class="cls-1" x="1032" y="48" width="16" height="16"/><rect class="cls-1" x="1000" y="32" width="48" height="16"/><polygon class="cls-1" points="1272 80 1272 96 1032 96 1032 80 1144 80 1144 64 1176 64 1176 80 1272 80"/><rect class="cls-1" x="1208" y="64" width="16" height="16"/><rect class="cls-1" x="1224" y="48" width="32" height="16"/><rect class="cls-1" x="1288" width="56" height="16"/><rect class="cls-1" x="1344" y="16" width="32" height="16"/><rect class="cls-1" x="1376" y="32" width="16" height="16"/><rect class="cls-1" x="1392" y="48" width="16" height="16"/><rect class="cls-1" x="1392" y="64" width="16" height="16"/><rect class="cls-1" x="1408" y="64" width="24" height="16"/><polygon class="cls-1" points="1512 96 1512 112 1376 112 1376 96 1360 96 1360 80 1344 80 1344 64 1328 64 1328 80 1272 80 1272 64 1256 64 1256 48 1272 48 1272 32 1304 32 1304 16 1344 16 1344 32 1328 32 1328 48 1360 48 1360 32 1376 32 1376 48 1392 48 1392 64 1376 64 1376 80 1392 80 1392 96 1408 96 1408 80 1432 80 1432 96 1512 96"/><rect class="cls-1" x="1432" y="80" width="56" height="16"/><rect class="cls-1" x="1528" y="96" width="64" height="16"/><rect class="cls-1" x="1528" y="80" width="64" height="16"/><rect class="cls-1" x="1592" y="48" width="32" height="16"/><rect class="cls-1" x="1624" y="32" width="48" height="16"/><polygon class="cls-1" points="1704 48 1704 64 1720 64 1720 80 1688 80 1688 64 1656 64 1656 80 1640 80 1640 96 1592 96 1592 80 1608 80 1608 64 1624 64 1624 48 1672 48 1672 32 1752 32 1752 48 1704 48"/><rect class="cls-1" x="1672" y="16" width="144" height="16"/><rect class="cls-1" x="1800" y="32" width="16" height="32"/><rect class="cls-1" x="1816" y="32" width="48" height="16"/><rect class="cls-1" x="1864" y="48" width="16" height="16"/><polygon class="cls-1" points="1880 64 1880 80 1816 80 1816 64 1848 64 1848 48 1864 48 1864 64 1880 64"/><rect class="cls-1" x="1880" y="64" width="40" height="16"/><rect class="cls-1" x="1904" y="80" width="16" height="32"/><rect class="cls-1" x="1888" y="80" width="16" height="16"/><polygon class="cls-1" points="192 80 192 96 0 96 0 80 64 80 64 64 96 64 96 80 192 80"/><rect class="cls-1" x="128" y="64" width="16" height="16"/><rect class="cls-1" x="144" y="48" width="32" height="16"/><rect class="cls-1" x="264" y="16" width="16" height="16"/><rect class="cls-1" x="296" y="32" width="32" height="16"/><rect class="cls-1" x="312" y="48" width="64" height="16"/><rect class="cls-1" x="312" y="64" width="16" height="16"/><rect class="cls-1" x="328" y="64" width="72" height="16"/><polygon class="cls-1" points="432 96 432 112 296 112 296 96 280 96 280 80 264 80 264 64 248 64 248 80 192 80 192 64 176 64 176 48 192 48 192 32 224 32 224 16 264 16 264 32 248 32 248 48 280 48 280 32 296 32 296 48 312 48 312 64 296 64 296 80 312 80 312 96 328 96 328 80 352 80 352 96 432 96"/><rect class="cls-1" x="352" y="80" width="80" height="16"/><rect class="cls-1" x="448" y="96" width="64" height="16"/><rect class="cls-1" x="480" y="80" width="32" height="16"/><rect class="cls-1" x="512" y="48" width="32" height="16"/><rect class="cls-1" x="544" y="32" width="48" height="16"/><polygon class="cls-1" points="624 48 624 64 640 64 640 80 608 80 608 64 576 64 576 80 560 80 560 96 512 96 512 80 528 80 528 64 544 64 544 48 592 48 592 32 672 32 672 48 624 48"/><rect class="cls-1" x="592" y="16" width="144" height="16"/><rect class="cls-1" x="720" y="32" width="16" height="32"/><rect class="cls-1" x="736" y="32" width="48" height="16"/><rect class="cls-1" x="784" y="48" width="16" height="16"/><polygon class="cls-1" points="800 64 800 80 736 80 736 64 768 64 768 48 784 48 784 64 800 64"/><rect class="cls-1" x="800" y="64" width="40" height="16"/><rect class="cls-1" x="824" y="80" width="16" height="32"/><rect class="cls-1" x="808" y="80" width="16" height="16"/><rect class="cls-1" x="32" y="48" width="32" height="16"/><rect class="cls-1" x="824" y="48" width="16" height="16"/><rect class="cls-2" x="840" y="112" width="1080" height="80"/><rect class="cls-2" y="112" width="840" height="80"/><rect class="cls-2" x="1592" y="96" width="312" height="16"/><rect class="cls-2" x="1640" y="80" width="248" height="16"/><rect class="cls-2" x="904" y="96" width="472" height="16"/><rect class="cls-2" x="840" y="96" width="32" height="16"/><rect class="cls-2" x="872" y="80" width="48" height="16"/><rect class="cls-2" x="936" y="80" width="96" height="16"/><rect class="cls-2" x="1032" y="64" width="112" height="16"/><rect class="cls-2" x="1144" y="48" width="32" height="16"/><rect class="cls-2" x="1176" y="64" width="32" height="16"/><rect class="cls-2" x="1224" y="64" width="48" height="16"/><rect class="cls-2" x="1272" y="80" width="88" height="16"/><rect class="cls-2" x="1328" y="64" width="16" height="16"/><rect class="cls-2" x="1376" y="64" width="16" height="16"/><rect class="cls-2" x="1392" y="80" width="16" height="16"/><rect class="cls-2" x="1512" y="96" width="16" height="16"/><rect class="cls-2" x="1544" y="80" width="32" height="16"/><rect class="cls-2" x="1576" y="64" width="32" height="16"/><rect class="cls-2" x="1256" y="32" width="16" height="16"/><rect class="cls-2" x="1272" y="16" width="32" height="16"/><rect class="cls-2" x="1000" y="48" width="32" height="16"/><rect class="cls-2" x="952" y="64" width="16" height="16"/><rect class="cls-2" x="936" y="32" width="16" height="32"/><rect class="cls-2" x="920" y="48" width="16" height="16"/><rect class="cls-2" x="856" y="48" width="32" height="16"/><rect class="cls-2" x="840" y="64" width="16" height="16"/><rect class="cls-2" x="1656" y="64" width="32" height="16"/><rect class="cls-2" x="1704" y="48" width="96" height="16"/><rect class="cls-2" x="1720" y="64" width="96" height="16"/><rect class="cls-2" x="1752" y="32" width="48" height="16"/><rect class="cls-2" x="1816" y="48" width="32" height="16"/><rect class="cls-2" x="1328" y="32" width="32" height="16"/><rect class="cls-2" x="512" y="96" width="312" height="16"/><rect class="cls-2" x="560" y="80" width="248" height="16"/><rect class="cls-2" y="96" width="296" height="16"/><rect class="cls-2" x="16" y="64" width="48" height="16"/><rect class="cls-2" x="64" y="48" width="32" height="16"/><rect class="cls-2" x="96" y="64" width="32" height="16"/><rect class="cls-2" x="144" y="64" width="48" height="16"/><rect class="cls-2" x="192" y="80" width="88" height="16"/><rect class="cls-2" x="248" y="64" width="16" height="16"/><rect class="cls-2" x="296" y="64" width="16" height="16"/><rect class="cls-2" x="312" y="80" width="16" height="16"/><rect class="cls-2" x="432" y="96" width="16" height="16"/><rect class="cls-2" x="464" y="80" width="32" height="16"/><rect class="cls-2" x="496" y="64" width="32" height="16"/><rect class="cls-2" x="176" y="32" width="16" height="16"/><rect class="cls-2" x="192" y="16" width="32" height="16"/><rect class="cls-2" x="576" y="64" width="32" height="16"/><rect class="cls-2" x="624" y="48" width="96" height="16"/><rect class="cls-2" x="640" y="64" width="96" height="16"/><rect class="cls-2" x="672" y="32" width="48" height="16"/><rect class="cls-2" x="736" y="48" width="32" height="16"/><rect class="cls-2" x="248" y="32" width="32" height="16"/><rect class="cls-3" y="192" width="1920" height="376"/><rect class="cls-3" x="840" y="176" width="160" height="16"/><rect class="cls-3" x="840" y="160" width="304" height="16"/><rect class="cls-3" x="1144" y="176" width="168" height="16"/><rect class="cls-3" x="1328" y="176" width="480" height="16"/><rect class="cls-3" x="1824" y="176" width="96" height="16"/><rect class="cls-3" x="840" y="144" width="96" height="16"/><rect class="cls-3" x="904" y="128" width="64" height="16"/><rect class="cls-3" x="936" y="112" width="64" height="16"/><rect class="cls-3" x="968" y="144" width="64" height="16"/><rect class="cls-3" x="1032" y="128" width="112" height="16"/><rect class="cls-3" x="1208" y="144" width="104" height="16"/><rect class="cls-3" x="1144" y="144" width="32" height="16"/><rect class="cls-3" x="1176" y="160" width="32" height="16"/><rect class="cls-3" x="1312" y="160" width="136" height="16"/><rect class="cls-3" x="1448" y="144" width="32" height="16"/><rect class="cls-3" x="1528" y="160" width="56" height="16"/><rect class="cls-3" x="1600" y="144" width="16" height="16"/><rect class="cls-3" x="1664" y="112" width="16" height="16"/><rect class="cls-3" x="1616" y="128" width="48" height="16"/><rect class="cls-3" x="1736" y="160" width="72" height="16"/><rect class="cls-3" x="1704" y="144" width="32" height="16"/><rect class="cls-3" x="1736" y="128" width="48" height="16"/><rect class="cls-3" x="1752" y="96" width="32" height="16"/><rect class="cls-3" x="1824" y="160" width="16" height="16"/><rect class="cls-3" x="1840" y="144" width="80" height="16"/><rect class="cls-3" x="1872" y="160" width="16" height="16"/><rect class="cls-3" x="1904" y="160" width="16" height="16"/><rect class="cls-3" x="1872" y="128" width="48" height="16"/><rect class="cls-3" x="1888" y="112" width="16" height="16"/><rect class="cls-3" x="1144" y="96" width="32" height="16"/><rect class="cls-3" x="1296" y="96" width="32" height="16"/><rect class="cls-3" x="1176" y="112" width="32" height="16"/><rect class="cls-3" x="840" y="128" width="16" height="16"/><rect class="cls-3" x="856" y="112" width="16" height="16"/><rect class="cls-3" y="160" width="64" height="16"/><rect class="cls-3" x="64" y="176" width="168" height="16"/><rect class="cls-3" x="248" y="176" width="480" height="16"/><rect class="cls-3" x="744" y="176" width="96" height="16"/><rect class="cls-3" y="128" width="40" height="16"/><rect class="cls-3" x="128" y="144" width="104" height="16"/><rect class="cls-3" x="1096" y="144" width="32" height="16"/><rect class="cls-3" x="96" y="160" width="32" height="16"/><rect class="cls-3" x="232" y="160" width="136" height="16"/><rect class="cls-3" x="368" y="144" width="32" height="16"/><rect class="cls-3" x="448" y="160" width="56" height="16"/><rect class="cls-3" x="520" y="144" width="16" height="16"/><rect class="cls-3" x="584" y="112" width="16" height="16"/><rect class="cls-3" x="536" y="128" width="48" height="16"/><rect class="cls-3" x="656" y="160" width="72" height="16"/><rect class="cls-3" x="624" y="144" width="32" height="16"/><rect class="cls-3" x="656" y="128" width="48" height="16"/><rect class="cls-3" x="672" y="96" width="32" height="16"/><rect class="cls-3" x="744" y="160" width="16" height="16"/><rect class="cls-3" x="760" y="144" width="80" height="16"/><rect class="cls-3" x="792" y="160" width="16" height="16"/><rect class="cls-3" x="824" y="160" width="16" height="16"/><rect class="cls-3" x="792" y="128" width="48" height="16"/><rect class="cls-3" x="808" y="112" width="16" height="16"/><rect class="cls-3" x="64" y="96" width="32" height="16"/><rect class="cls-3" x="216" y="96" width="32" height="16"/><rect class="cls-3" x="96" y="112" width="32" height="16"/><rect class="cls-1" x="2968" y="48" width="144" height="16"/><rect class="cls-1" x="2760" y="32" width="32" height="160"/><rect class="cls-1" x="2792" y="96" width="32" height="16"/><rect class="cls-1" x="2792" y="16" width="32" height="16"/><rect class="cls-1" x="2824" width="32" height="16"/><polygon class="cls-1" points="2872 64 2872 80 2856 80 2856 96 2840 96 2840 80 2792 80 2792 64 2808 64 2808 48 2792 48 2792 32 2824 32 2824 16 2856 16 2856 48 2840 48 2840 64 2872 64"/><rect class="cls-1" x="2856" y="16" width="64" height="16"/><polygon class="cls-1" points="2952 64 2952 80 2888 80 2888 64 2872 64 2872 32 2920 32 2920 64 2952 64"/><rect class="cls-1" x="2952" y="48" width="16" height="16"/><rect class="cls-1" x="2920" y="32" width="48" height="16"/><polygon class="cls-1" points="3192 80 3192 96 2952 96 2952 80 3064 80 3064 64 3096 64 3096 80 3192 80"/><rect class="cls-1" x="3128" y="64" width="16" height="16"/><rect class="cls-1" x="3144" y="48" width="32" height="16"/><polygon class="cls-1" points="3198 32 3198 80 3192 80 3192 64 3176 64 3176 48 3192 48 3192 32 3198 32"/><polygon class="cls-1" points="2112 80 2112 96 1920 96 1920 80 1984 80 1984 64 2016 64 2016 80 2112 80"/><rect class="cls-1" x="2048" y="64" width="16" height="16"/><rect class="cls-1" x="2064" y="48" width="32" height="16"/><rect class="cls-1" x="2184" y="16" width="16" height="16"/><rect class="cls-1" x="2216" y="32" width="32" height="16"/><rect class="cls-1" x="2232" y="48" width="64" height="16"/><rect class="cls-1" x="2232" y="64" width="16" height="16"/><rect class="cls-1" x="2248" y="64" width="72" height="16"/><polygon class="cls-1" points="2352 96 2352 112 2216 112 2216 96 2200 96 2200 80 2184 80 2184 64 2168 64 2168 80 2112 80 2112 64 2096 64 2096 48 2112 48 2112 32 2144 32 2144 16 2184 16 2184 32 2168 32 2168 48 2200 48 2200 32 2216 32 2216 48 2232 48 2232 64 2216 64 2216 80 2232 80 2232 96 2248 96 2248 80 2272 80 2272 96 2352 96"/><rect class="cls-1" x="2272" y="80" width="80" height="16"/><rect class="cls-1" x="2368" y="96" width="64" height="16"/><rect class="cls-1" x="2400" y="80" width="32" height="16"/><rect class="cls-1" x="2432" y="48" width="32" height="16"/><rect class="cls-1" x="2464" y="32" width="48" height="16"/><polygon class="cls-1" points="2544 48 2544 64 2560 64 2560 80 2528 80 2528 64 2496 64 2496 80 2480 80 2480 96 2432 96 2432 80 2448 80 2448 64 2464 64 2464 48 2512 48 2512 32 2592 32 2592 48 2544 48"/><rect class="cls-1" x="2512" y="16" width="144" height="16"/><rect class="cls-1" x="2640" y="32" width="16" height="32"/><rect class="cls-1" x="2656" y="32" width="48" height="16"/><rect class="cls-1" x="2704" y="48" width="16" height="16"/><polygon class="cls-1" points="2720 64 2720 80 2656 80 2656 64 2688 64 2688 48 2704 48 2704 64 2720 64"/><rect class="cls-1" x="2720" y="64" width="40" height="16"/><rect class="cls-1" x="2744" y="80" width="16" height="32"/><rect class="cls-1" x="2728" y="80" width="16" height="16"/><rect class="cls-1" x="1952" y="48" width="32" height="16"/><rect class="cls-1" x="2744" y="48" width="16" height="16"/><rect class="cls-2" x="2760" y="112" width="438" height="80"/><rect class="cls-2" x="1920" y="112" width="840" height="80"/><rect class="cls-2" x="2824" y="96" width="374" height="16"/><rect class="cls-2" x="2760" y="96" width="32" height="16"/><rect class="cls-2" x="2792" y="80" width="48" height="16"/><rect class="cls-2" x="2856" y="80" width="96" height="16"/><rect class="cls-2" x="2952" y="64" width="112" height="16"/><rect class="cls-2" x="3064" y="48" width="32" height="16"/><rect class="cls-2" x="3096" y="64" width="32" height="16"/><rect class="cls-2" x="3144" y="64" width="48" height="16"/><rect class="cls-2" x="3192" y="80" width="6" height="16"/><rect class="cls-2" x="3176" y="32" width="16" height="16"/><rect class="cls-2" x="3192" y="16" width="6" height="16"/><rect class="cls-2" x="2920" y="48" width="32" height="16"/><rect class="cls-2" x="2872" y="64" width="16" height="16"/><rect class="cls-2" x="2856" y="32" width="16" height="32"/><rect class="cls-2" x="2840" y="48" width="16" height="16"/><rect class="cls-2" x="2776" y="48" width="32" height="16"/><rect class="cls-2" x="2760" y="64" width="16" height="16"/><rect class="cls-2" x="2432" y="96" width="312" height="16"/><rect class="cls-2" x="2480" y="80" width="248" height="16"/><rect class="cls-2" x="1904" y="96" width="312" height="16"/><rect class="cls-2" x="1920" y="64" width="64" height="16"/><rect class="cls-2" x="1984" y="48" width="32" height="16"/><rect class="cls-2" x="2016" y="64" width="32" height="16"/><rect class="cls-2" x="2064" y="64" width="48" height="16"/><rect class="cls-2" x="2112" y="80" width="88" height="16"/><rect class="cls-2" x="2168" y="64" width="16" height="16"/><rect class="cls-2" x="2216" y="64" width="16" height="16"/><rect class="cls-2" x="2232" y="80" width="16" height="16"/><rect class="cls-2" x="2352" y="96" width="16" height="16"/><rect class="cls-2" x="2384" y="80" width="32" height="16"/><rect class="cls-2" x="2416" y="64" width="32" height="16"/><rect class="cls-2" x="2096" y="32" width="16" height="16"/><rect class="cls-2" x="2112" y="16" width="32" height="16"/><rect class="cls-2" x="2496" y="64" width="32" height="16"/><rect class="cls-2" x="2544" y="48" width="96" height="16"/><rect class="cls-2" x="2560" y="64" width="96" height="16"/><rect class="cls-2" x="2592" y="32" width="48" height="16"/><rect class="cls-2" x="2656" y="48" width="32" height="16"/><rect class="cls-2" x="2168" y="32" width="32" height="16"/><rect class="cls-3" x="1920" y="192" width="1278" height="376"/><rect class="cls-3" x="2760" y="176" width="160" height="16"/><rect class="cls-3" x="2760" y="160" width="304" height="16"/><rect class="cls-3" x="3064" y="176" width="134" height="16"/><rect class="cls-3" x="2760" y="144" width="96" height="16"/><rect class="cls-3" x="2824" y="128" width="64" height="16"/><rect class="cls-3" x="2856" y="112" width="64" height="16"/><rect class="cls-3" x="2888" y="144" width="64" height="16"/><rect class="cls-3" x="2952" y="128" width="112" height="16"/><rect class="cls-3" x="3128" y="144" width="70" height="16"/><rect class="cls-3" x="3064" y="144" width="32" height="16"/><rect class="cls-3" x="3096" y="160" width="32" height="16"/><rect class="cls-3" x="3064" y="96" width="32" height="16"/><rect class="cls-3" x="3096" y="112" width="32" height="16"/><rect class="cls-3" x="2760" y="128" width="16" height="16"/><rect class="cls-3" x="2776" y="112" width="16" height="16"/><rect class="cls-3" x="1920" y="160" width="64" height="16"/><rect class="cls-3" x="1984" y="176" width="168" height="16"/><rect class="cls-3" x="2168" y="176" width="480" height="16"/><rect class="cls-3" x="2664" y="176" width="96" height="16"/><rect class="cls-3" x="1920" y="128" width="40" height="16"/><rect class="cls-3" x="2048" y="144" width="104" height="16"/><rect class="cls-3" x="3016" y="144" width="32" height="16"/><rect class="cls-3" x="2016" y="160" width="32" height="16"/><rect class="cls-3" x="2152" y="160" width="136" height="16"/><rect class="cls-3" x="2288" y="144" width="32" height="16"/><rect class="cls-3" x="2368" y="160" width="56" height="16"/><rect class="cls-3" x="2440" y="144" width="16" height="16"/><rect class="cls-3" x="2504" y="112" width="16" height="16"/><rect class="cls-3" x="2456" y="128" width="48" height="16"/><rect class="cls-3" x="2576" y="160" width="72" height="16"/><rect class="cls-3" x="2544" y="144" width="32" height="16"/><rect class="cls-3" x="2576" y="128" width="48" height="16"/><rect class="cls-3" x="2592" y="96" width="32" height="16"/><rect class="cls-3" x="2664" y="160" width="16" height="16"/><rect class="cls-3" x="2680" y="144" width="80" height="16"/><rect class="cls-3" x="2712" y="160" width="16" height="16"/><rect class="cls-3" x="2744" y="160" width="16" height="16"/><rect class="cls-3" x="2712" y="128" width="48" height="16"/><rect class="cls-3" x="2728" y="112" width="16" height="16"/><rect class="cls-3" x="1984" y="96" width="32" height="16"/><rect class="cls-3" x="2136" y="96" width="32" height="16"/><rect class="cls-3" x="2016" y="112" width="32" height="16"/><g class="cls-4"><path class="cls-5" d="M1144,424V408H1032v16h64v16h-64V424H968v16H936V424h32V408h32V392H936v16H904v16H856V408H824V392H808v16H792v16H760v16h32v16H760V440H744v32h256V456h144V440h-16V424ZM824,456H808V440h16Z"/><rect class="cls-5" x="1208" y="424" width="104" height="16"/><rect class="cls-5" x="1144" y="424" width="32" height="16"/><polygon class="cls-5" points="1208 440 1176 440 1176 456 1144 456 1144 472 1312 472 1312 456 1208 456 1208 440"/><rect class="cls-5" x="1448" y="424" width="32" height="16"/><rect class="cls-5" x="1600" y="424" width="16" height="16"/><rect class="cls-5" x="1664" y="392" width="16" height="16"/><rect class="cls-5" x="1616" y="408" width="48" height="16"/><polygon class="cls-5" points="1736 456 1584 456 1584 440 1528 440 1528 456 1448 456 1448 440 1312 440 1312 456 1328 456 1328 472 1808 472 1808 456 1808 440 1736 440 1736 456"/><rect class="cls-5" x="1704" y="424" width="32" height="16"/><rect class="cls-5" x="1736" y="408" width="48" height="16"/><rect class="cls-5" x="1752" y="376" width="32" height="16"/><rect class="cls-5" x="1144" y="376" width="32" height="16"/><rect class="cls-5" x="1296" y="376" width="32" height="16"/><rect class="cls-5" x="1176" y="392" width="32" height="16"/><rect class="cls-5" x="856" y="392" width="16" height="16"/><rect class="cls-5" y="440" width="64" height="16"/><rect class="cls-5" y="408" width="40" height="16"/><rect class="cls-5" x="128" y="424" width="104" height="16"/><polygon class="cls-5" points="128 440 96 440 96 456 64 456 64 472 232 472 232 456 128 456 128 440"/><rect class="cls-5" x="368" y="424" width="32" height="16"/><rect class="cls-5" x="520" y="424" width="16" height="16"/><rect class="cls-5" x="584" y="392" width="16" height="16"/><rect class="cls-5" x="536" y="408" width="48" height="16"/><polygon class="cls-5" points="656 456 504 456 504 440 448 440 448 456 368 456 368 440 232 440 232 456 248 456 248 472 728 472 728 456 728 440 656 440 656 456"/><rect class="cls-5" x="624" y="424" width="32" height="16"/><rect class="cls-5" x="656" y="408" width="48" height="16"/><rect class="cls-5" x="672" y="376" width="32" height="16"/><rect class="cls-5" x="64" y="376" width="32" height="16"/><rect class="cls-5" x="216" y="376" width="32" height="16"/><rect class="cls-5" x="96" y="392" width="32" height="16"/><path class="cls-5" d="M3064,424V408H2952v16h64v16h-64V424h-64v16h-32V424h32V408h32V392h-64v16h-32v16h-48V408h-32V392h-16v16h-16v16h-32v16h32v16h-32V440h-16v32h256V456h144V440h-16V424Zm-320,32h-16V440h16Z"/><rect class="cls-5" x="3128" y="424" width="70" height="16"/><rect class="cls-5" x="3064" y="424" width="32" height="16"/><polygon class="cls-5" points="3198 456 3198 472 3064 472 3064 456 3096 456 3096 440 3128 440 3128 456 3198 456"/><rect class="cls-5" x="3064" y="376" width="32" height="16"/><rect class="cls-5" x="3096" y="392" width="32" height="16"/><rect class="cls-5" x="2776" y="392" width="16" height="16"/><path class="cls-5" d="M1920,440V424h40V408h-56V392h-16v16h-16v16h-32v16h32v16h-32V440h-16v32h96V456h64V440Zm-16,16h-16V440h16Z"/><rect class="cls-5" x="2048" y="424" width="104" height="16"/><polygon class="cls-5" points="2048 440 2016 440 2016 456 1984 456 1984 472 2152 472 2152 456 2048 456 2048 440"/><rect class="cls-5" x="2288" y="424" width="32" height="16"/><rect class="cls-5" x="2440" y="424" width="16" height="16"/><rect class="cls-5" x="2504" y="392" width="16" height="16"/><rect class="cls-5" x="2456" y="408" width="48" height="16"/><polygon class="cls-5" points="2576 456 2424 456 2424 440 2368 440 2368 456 2288 456 2288 440 2152 440 2152 456 2168 456 2168 472 2648 472 2648 456 2648 440 2576 440 2576 456"/><rect class="cls-5" x="2544" y="424" width="32" height="16"/><rect class="cls-5" x="2576" y="408" width="48" height="16"/><rect class="cls-5" x="2592" y="376" width="32" height="16"/><rect class="cls-5" x="1984" y="376" width="32" height="16"/><rect class="cls-5" x="2136" y="376" width="32" height="16"/><rect class="cls-5" x="2016" y="392" width="32" height="16"/></g><g class="cls-6"><path class="cls-7" d="M3080,536v16h-32V536h32V520h-32V504h-16V488h-16v16h-32v16h-48V504h-32V488h-64v16h32v16h32v16h-32V520h-64v16h-64V520h64V504H2696v16h16v16h-16v16h144v16h256V536Zm-48,16h-16V536h16Z"/><rect class="cls-7" x="2528" y="520" width="104" height="16"/><rect class="cls-7" x="2664" y="520" width="32" height="16"/><polygon class="cls-7" points="2632 536 2664 536 2664 552 2696 552 2696 568 2528 568 2528 552 2632 552 2632 536"/><rect class="cls-7" x="2360" y="520" width="32" height="16"/><rect class="cls-7" x="2224" y="520" width="16" height="16"/><rect class="cls-7" x="2160" y="488" width="16" height="16"/><rect class="cls-7" x="2176" y="504" width="48" height="16"/><polygon class="cls-7" points="2104 552 2256 552 2256 536 2312 536 2312 552 2392 552 2392 536 2528 536 2528 552 2512 552 2512 568 2032 568 2032 552 2032 536 2104 536 2104 552"/><rect class="cls-7" x="2104" y="520" width="32" height="16"/><rect class="cls-7" x="2056" y="504" width="48" height="16"/><rect class="cls-7" x="2056" y="472" width="32" height="16"/><rect class="cls-7" x="2664" y="472" width="32" height="16"/><rect class="cls-7" x="2512" y="472" width="32" height="16"/><rect class="cls-7" x="2632" y="488" width="32" height="16"/><rect class="cls-7" x="2968" y="488" width="16" height="16"/><polygon class="cls-7" points="3198 552 3198 568 3112 568 3112 536 3184 536 3184 552 3198 552"/><rect class="cls-7" x="3184" y="520" width="14" height="16"/><rect class="cls-7" x="3136" y="504" width="48" height="16"/><rect class="cls-7" x="3136" y="472" width="32" height="16"/><path class="cls-7" d="M1160,536v16h-32V536h32V520h-32V504h-16V488h-16v16h-32v16h-48V504H984V488H920v16h32v16h32v16H952V520H888v16H824V520h64V504H776v16h16v16H776v16H920v16h256V536Zm-48,16h-16V536h16Z"/><rect class="cls-7" x="608" y="520" width="104" height="16"/><rect class="cls-7" x="744" y="520" width="32" height="16"/><polygon class="cls-7" points="712 536 744 536 744 552 776 552 776 568 608 568 608 552 712 552 712 536"/><rect class="cls-7" x="440" y="520" width="32" height="16"/><rect class="cls-7" x="304" y="520" width="16" height="16"/><rect class="cls-7" x="240" y="488" width="16" height="16"/><rect class="cls-7" x="256" y="504" width="48" height="16"/><polygon class="cls-7" points="184 552 336 552 336 536 392 536 392 552 472 552 472 536 608 536 608 552 592 552 592 568 112 568 112 552 112 536 184 536 184 552"/><rect class="cls-7" x="184" y="520" width="32" height="16"/><rect class="cls-7" x="136" y="504" width="48" height="16"/><rect class="cls-7" x="136" y="472" width="32" height="16"/><path class="cls-7" d="M80,536v16H48V536H80V520H48V504H32V488H16v16H0v64H96V536ZM32,552H16V536H32Z"/><rect class="cls-7" x="744" y="472" width="32" height="16"/><rect class="cls-7" x="592" y="472" width="32" height="16"/><rect class="cls-7" x="712" y="488" width="32" height="16"/><rect class="cls-7" x="1048" y="488" width="16" height="16"/><path class="cls-7" d="M2000,536v16h-32V536h32V520h-32V504h-16V488h-16v16h-56v16h40v16h-64v16h64v16h96V536Zm-48,16h-16V536h16Z"/><rect class="cls-7" x="1688" y="520" width="104" height="16"/><polygon class="cls-7" points="1792 536 1824 536 1824 552 1856 552 1856 568 1688 568 1688 552 1792 552 1792 536"/><rect class="cls-7" x="1520" y="520" width="32" height="16"/><rect class="cls-7" x="1384" y="520" width="16" height="16"/><rect class="cls-7" x="1320" y="488" width="16" height="16"/><rect class="cls-7" x="1336" y="504" width="48" height="16"/><polygon class="cls-7" points="1264 552 1416 552 1416 536 1472 536 1472 552 1552 552 1552 536 1688 536 1688 552 1672 552 1672 568 1192 568 1192 552 1192 536 1264 536 1264 552"/><rect class="cls-7" x="1264" y="520" width="32" height="16"/><rect class="cls-7" x="1216" y="504" width="48" height="16"/><rect class="cls-7" x="1216" y="472" width="32" height="16"/><rect class="cls-7" x="1824" y="472" width="32" height="16"/><rect class="cls-7" x="1672" y="472" width="32" height="16"/><rect class="cls-7" x="1792" y="488" width="32" height="16"/></g><g class="cls-8"><path class="cls-9" d="M3080,344v16h-32V344h32V328h-32V312h-16V296h-16v16h-32v16h-48V312h-32V296h-64v16h32v16h32v16h-32V328h-64v16h-64V328h64V312H2696v16h16v16h-16v16h144v16h256V344Zm-48,16h-16V344h16Z"/><rect class="cls-9" x="2528" y="328" width="104" height="16"/><rect class="cls-9" x="2664" y="328" width="32" height="16"/><polygon class="cls-9" points="2632 344 2664 344 2664 360 2696 360 2696 376 2528 376 2528 360 2632 360 2632 344"/><rect class="cls-9" x="2360" y="328" width="32" height="16"/><rect class="cls-9" x="2224" y="328" width="16" height="16"/><rect class="cls-9" x="2160" y="296" width="16" height="16"/><rect class="cls-9" x="2176" y="312" width="48" height="16"/><polygon class="cls-9" points="2104 360 2256 360 2256 344 2312 344 2312 360 2392 360 2392 344 2528 344 2528 360 2512 360 2512 376 2032 376 2032 360 2032 344 2104 344 2104 360"/><rect class="cls-9" x="2104" y="328" width="32" height="16"/><rect class="cls-9" x="2056" y="312" width="48" height="16"/><rect class="cls-9" x="2056" y="280" width="32" height="16"/><rect class="cls-9" x="2664" y="280" width="32" height="16"/><rect class="cls-9" x="2512" y="280" width="32" height="16"/><rect class="cls-9" x="2632" y="296" width="32" height="16"/><rect class="cls-9" x="2968" y="296" width="16" height="16"/><polygon class="cls-9" points="3198 360 3198 376 3112 376 3112 344 3184 344 3184 360 3198 360"/><rect class="cls-9" x="3184" y="328" width="14" height="16"/><rect class="cls-9" x="3136" y="312" width="48" height="16"/><rect class="cls-9" x="3136" y="280" width="32" height="16"/><path class="cls-9" d="M1160,344v16h-32V344h32V328h-32V312h-16V296h-16v16h-32v16h-48V312H984V296H920v16h32v16h32v16H952V328H888v16H824V328h64V312H776v16h16v16H776v16H920v16h256V344Zm-48,16h-16V344h16Z"/><rect class="cls-9" x="608" y="328" width="104" height="16"/><rect class="cls-9" x="744" y="328" width="32" height="16"/><polygon class="cls-9" points="712 344 744 344 744 360 776 360 776 376 608 376 608 360 712 360 712 344"/><rect class="cls-9" x="440" y="328" width="32" height="16"/><rect class="cls-9" x="304" y="328" width="16" height="16"/><rect class="cls-9" x="240" y="296" width="16" height="16"/><rect class="cls-9" x="256" y="312" width="48" height="16"/><polygon class="cls-9" points="184 360 336 360 336 344 392 344 392 360 472 360 472 344 608 344 608 360 592 360 592 376 112 376 112 360 112 344 184 344 184 360"/><rect class="cls-9" x="184" y="328" width="32" height="16"/><rect class="cls-9" x="136" y="312" width="48" height="16"/><rect class="cls-9" x="136" y="280" width="32" height="16"/><path class="cls-9" d="M80,344v16H48V344H80V328H48V312H32V296H16v16H0v64H96V344ZM32,360H16V344H32Z"/><rect class="cls-9" x="744" y="280" width="32" height="16"/><rect class="cls-9" x="592" y="280" width="32" height="16"/><rect class="cls-9" x="712" y="296" width="32" height="16"/><rect class="cls-9" x="1048" y="296" width="16" height="16"/><path class="cls-9" d="M2000,344v16h-32V344h32V328h-32V312h-16V296h-16v16h-56v16h40v16h-64v16h64v16h96V344Zm-48,16h-16V344h16Z"/><rect class="cls-9" x="1688" y="328" width="104" height="16"/><polygon class="cls-9" points="1792 344 1824 344 1824 360 1856 360 1856 376 1688 376 1688 360 1792 360 1792 344"/><rect class="cls-9" x="1520" y="328" width="32" height="16"/><rect class="cls-9" x="1384" y="328" width="16" height="16"/><rect class="cls-9" x="1320" y="296" width="16" height="16"/><rect class="cls-9" x="1336" y="312" width="48" height="16"/><polygon class="cls-9" points="1264 360 1416 360 1416 344 1472 344 1472 360 1552 360 1552 344 1688 344 1688 360 1672 360 1672 376 1192 376 1192 360 1192 344 1264 344 1264 360"/><rect class="cls-9" x="1264" y="328" width="32" height="16"/><rect class="cls-9" x="1216" y="312" width="48" height="16"/><rect class="cls-9" x="1216" y="280" width="32" height="16"/><rect class="cls-9" x="1824" y="280" width="32" height="16"/><rect class="cls-9" x="1672" y="280" width="32" height="16"/><rect class="cls-9" x="1792" y="296" width="32" height="16"/></g><rect class="cls-1" x="1896" y="80" width="40" height="16"/><rect class="cls-2" x="1904" y="96" width="32" height="32"/><rect class="cls-3" x="1904" y="128" width="56" height="16"/><rect class="cls-3" x="1904" y="144" width="32" height="16"/><rect class="cls-3" x="1904" y="160" width="32" height="16"/><rect class="cls-3" x="1904" y="176" width="32" height="16"/><rect class="cls-3" x="1904" y="192" width="32" height="24"/></g></g></svg>